<?xml version="1.0" standalone="no"?>
<!DOCTYPE svg PUBLIC "-//W3C//DTD SVG 20010904//EN"
 "http://www.w3.org/TR/2001/REC-SVG-20010904/DTD/svg10.dtd">
<svg version="1.0" xmlns="http://www.w3.org/2000/svg"
 width="16.000000pt" height="16.000000pt" viewBox="0 0 16.000000 16.000000"
 preserveAspectRatio="xMidYMid meet">
<metadata>
Created by potrace 1.11, written by Peter Selinger 2001-2013
</metadata>
<g transform="translate(0.000000,16.000000) scale(0.003125,-0.003125)"
fill="#000000" stroke="none">
<path d="M2379 5116 c-2 -2 -38 -6 -79 -10 -64 -6 -207 -29 -315 -51 -58 -12
-241 -66 -310 -92 -134 -50 -282 -122 -450 -217 -50 -28 -184 -123 -258 -184
-176 -141 -319 -288 -448 -457 -59 -78 -169 -243 -169 -254 0 -5 -3 -11 -7
-13 -13 -5 -128 -243 -173 -359 -59 -149 -122 -387 -144 -549 -28 -200 -29
-569 -2 -725 3 -16 8 -43 10 -60 42 -304 197 -702 380 -980 299 -451 675 -760
1201 -985 48 -21 196 -70 265 -89 109 -29 246 -56 340 -67 30 -3 77 -10 104
-14 50 -8 469 -5 516 4 14 2 45 7 70 11 64 9 88 13 150 25 30 7 68 14 85 17
53 9 277 81 369 118 548 221 1020 641 1297 1155 13 25 28 48 32 51 5 3 8 8 6
10 -1 2 8 27 21 54 48 106 115 271 124 310 2 6 6 17 9 25 19 44 80 318 92 413
29 224 27 536 -4 742 -26 169 -90 415 -136 520 -7 17 -25 60 -40 96 -14 37
-48 109 -76 160 -27 52 -57 110 -66 129 -10 19 -21 37 -24 40 -4 3 -21 30 -40
60 -90 149 -252 339 -435 511 -106 98 -331 261 -454 327 -175 95 -324 160
-480 210 -73 24 -247 68 -300 76 -19 3 -44 8 -56 10 -12 2 -45 7 -74 11 -29 4
-62 9 -74 12 -24 5 -452 14 -457 9z m433 -937 c241 -47 415 -131 568 -275 106
-101 163 -190 209 -329 19 -58 24 -83 41 -205 8 -57 5 -309 -4 -370 -8 -46
-18 -138 -20 -170 -1 -17 4 -24 13 -22 24 5 67 -18 90 -49 79 -106 25 -384
-100 -516 -20 -21 -62 -90 -94 -153 -58 -115 -123 -231 -135 -240 -4 -3 -9
-12 -12 -20 -3 -8 -34 -53 -68 -100 -73 -97 -184 -211 -252 -258 l-48 -33 15
-36 c8 -19 12 -40 8 -47 -3 -6 -2 -8 2 -3 5 4 24 -21 43 -55 20 -35 55 -88 78
-119 24 -31 41 -59 39 -63 -3 -3 -2 -4 1 -2 3 2 25 -15 49 -39 43 -44 145
-115 165 -115 6 0 8 -5 4 -12 -4 -6 -3 -8 3 -5 5 3 25 2 44 -3 19 -5 86 -19
149 -30 63 -12 122 -24 130 -27 8 -4 26 -8 40 -10 14 -2 50 -11 80 -19 30 -9
74 -20 98 -26 23 -5 42 -13 42 -17 0 -7 -154 -121 -164 -121 -3 0 -24 -12 -48
-27 -60 -39 -75 -48 -143 -84 -71 -38 -252 -115 -315 -134 -125 -38 -218 -64
-245 -68 -16 -3 -50 -10 -75 -15 -25 -6 -70 -13 -100 -17 -30 -4 -82 -10 -115
-14 -60 -8 -438 -6 -485 3 -14 2 -50 7 -80 11 -213 25 -535 128 -738 236 -156
83 -352 212 -352 231 0 4 12 10 28 14 15 3 41 10 57 15 17 4 41 10 55 13 14 3
50 11 80 19 64 17 146 34 260 53 96 16 192 68 272 145 78 76 179 226 222 331
l15 36 -57 43 c-165 125 -316 325 -457 608 -31 62 -73 131 -93 153 -90 97
-142 244 -137 387 3 102 58 182 122 176 21 -2 22 1 17 44 -2 25 -7 53 -9 61
-9 34 -18 173 -20 295 -4 356 87 564 336 770 39 33 179 110 251 139 73 29 205
62 295 75 107 14 345 9 445 -10z"/>
</g>
</svg>
